<?xml version="1.0" encoding="UTF-8"?>
<svg version="1.1" xmlns="http://www.w3.org/2000/svg" width="208" height="207">
<path d="M0 0 C5.31124964 0.603148 10.48703511 1.43913427 15.70556641 2.60717773 C16.43345084 2.76700921 17.16133528 2.92684069 17.91127682 3.09151554 C20.30879661 3.61883334 22.7051582 4.15123171 25.1015625 4.68359375 C26.80517693 5.05913826 28.50886821 5.43433426 30.21263123 5.8092041 C34.7498531 6.80842764 39.28611201 7.81195236 43.82210159 8.81675339 C51.28033334 10.46849791 58.73958849 12.11562021 66.19889259 13.76251411 C68.04881424 14.17100274 69.89869699 14.57966759 71.74854088 14.98850822 C83.02899365 17.48103879 94.31557491 19.93611433 105.62109375 22.3125 C107.79802212 22.77283097 109.97494311 23.23319683 112.15185547 23.69360352 C116.00363238 24.50743675 119.85834657 25.30477983 123.71533203 26.09350586 C125.3845784 26.44579716 127.05369683 26.79869553 128.72265625 27.15234375 C129.83367958 27.37150452 129.83367958 27.37150452 130.96714783 27.59509277 C132.96508789 28.02709961 132.96508789 28.02709961 136 29 C136.33 29.99 136.66 30.98 137 32 C129.29851279 34.38264441 121.53802394 36.48456869 113.73828125 38.51953125 C112.44506913 38.85815768 111.15188757 39.19690088 109.85873413 39.53575134 C106.39552234 40.44257301 102.93164295 41.3468178 99.467556 42.25028992 C97.30259146 42.81508493 95.13780023 43.38053979 92.97305298 43.94616699 C65.30194833 51.17500901 37.60064857 58.2829979 9.86859131 65.2746582 C6.95503557 66.01136955 4.04311103 66.75428619 1.13134766 67.49804688 C-0.69756438 67.96234502 -2.52650191 68.42654277 -4.35546875 68.890625 C-5.18959793 69.1051532 -6.02372711 69.3196814 -6.88313293 69.54071045 C-9.99400234 70.32656685 -12.77765467 71 -16 71 C-12.92929924 54.77377074 -9.40553704 38.66561099 -5.75 22.5625 C-5.52395081 21.56295288 -5.29790161 20.56340576 -5.06500244 19.53356934 C-4.41628654 16.66878444 -3.7636237 13.80493209 -3.109375 10.94140625 C-2.91163483 10.06849442 -2.71389465 9.19558258 -2.51016235 8.29621887 C-1.115605 2.23121 -1.115605 2.23121 0 0 Z " fill="#FF35EB" transform="translate(26,51)"/>
<path d="M0 0 C-1.67248293 10.01430524 -4.81990605 19.54309491 -7.84765625 29.2109375 C-8.4257994 31.07021702 -9.00346387 32.92964545 -9.58067322 34.78921509 C-11.09330629 39.65840935 -12.61175033 44.52577089 -14.13165283 49.3927002 C-16.27778373 56.26859344 -18.41607032 63.14693086 -20.55503845 70.02505493 C-21.69252479 73.68276675 -22.8322997 77.33975309 -23.97389221 80.9961853 C-24.49310597 82.66200356 -25.01230729 84.3278257 -25.53149414 85.99365234 C-25.76787598 86.74902283 -26.00425781 87.50439331 -26.24780273 88.28265381 C-27.25246686 91.50973417 -28.17985248 94.71940994 -29 98 C-49.13 98 -69.26 98 -90 98 C-89.08735353 94.34941413 -88.08326569 92.14101086 -86.21875 88.94140625 C-85.33932739 87.4243811 -85.33932739 87.4243811 -84.44213867 85.87670898 C-83.48078003 84.23617554 -83.48078003 84.23617554 -82.5 82.5625 C-81.83653564 81.42176025 -81.17307129 80.28102051 -80.48950195 79.10571289 C-78.70177289 76.03315466 -76.90744295 72.96450671 -75.11090088 69.89709473 C-74.00188698 68.00322241 -72.89407958 66.10864941 -71.78662109 64.21386719 C-64.64885447 52.00358705 -57.4869888 39.80737281 -50.30541992 27.62280273 C-49.79458862 26.75570679 -49.79458862 26.75570679 -49.2734375 25.87109375 C-48.90790771 25.28473145 -48.54237793 24.69836914 -48.16577148 24.09423828 C-46.89109403 21.91410493 -46.89109403 21.91410493 -45.85180664 19.07373047 C-43.51839101 13.84292684 -41.33140906 10.25401282 -35.90917969 8.10131836 C-30.9167507 6.46669422 -25.81795263 5.35419438 -20.6875 4.25 C-18.90454999 3.82731719 -17.122629 3.40026875 -15.34179688 2.96875 C-2.90837515 0 -2.90837515 0 0 0 Z " fill="#FF11F8" transform="translate(158,96)"/>
<path d="M0 0 C-1.43234259 3.83404835 -3.20394594 7.29062018 -5.23828125 10.83984375 C-6.211604 12.5417688 -6.211604 12.5417688 -7.20458984 14.27807617 C-7.90704252 15.49799011 -8.60968357 16.7177956 -9.3125 17.9375 C-10.03607495 19.19826337 -10.75954386 20.45908761 -11.48291016 21.7199707 C-17.41002821 32.0360915 -23.44411364 42.28753807 -29.52587891 52.51318359 C-30.98773375 54.97930706 -32.43927165 57.45117766 -33.88671875 59.92578125 C-34.33998535 60.70026611 -34.79325195 61.47475098 -35.26025391 62.27270508 C-36.09331585 63.69753149 -36.92514175 65.12308176 -37.75537109 66.54956055 C-40.04520076 70.46097972 -42.44977773 74.25273462 -45 78 C-50.07599137 74.46218783 -53.33453539 69.89206823 -57 65 C-58.53804041 62.97640538 -60.07999024 60.95577855 -61.625 58.9375 C-62.04023926 58.39496582 -62.45547852 57.85243164 -62.88330078 57.29345703 C-66.36160697 52.7738662 -69.95070177 48.35075295 -73.5625 43.9375 C-77.55147174 39.0540138 -81.50205965 34.14957782 -85.3125 29.125 C-86.03050781 28.17882812 -86.74851562 27.23265625 -87.48828125 26.2578125 C-89 24 -89 24 -89 22 C-85.42579333 21.07287008 -81.8515694 20.14580673 -78.27734375 19.21875 C-77.16125229 18.92924469 -76.04516083 18.63973938 -74.89524841 18.34146118 C-68.75872985 16.74984654 -62.62199379 15.1590777 -56.48486328 13.56982422 C-41.73019206 9.75106531 -41.73019206 9.75106531 -26.98371887 5.90081787 C-24.09145469 5.1418846 -21.19838391 4.38605777 -18.3052063 3.63061523 C-16.41473273 3.13540794 -14.52558699 2.63514046 -12.63647461 2.13476562 C-10.97177124 1.70067383 -10.97177124 1.70067383 -9.2734375 1.2578125 C-8.33935059 1.0117627 -7.40526367 0.76571289 -6.44287109 0.51220703 C-4 0 -4 0 0 0 Z " fill="#FFFFFF" transform="translate(102,111)"/>
<path d="M0 0 C6.0218352 1.73771685 11.46488166 4.56608463 17.05859375 7.33984375 C18.12110855 7.86260391 19.18362335 8.38536407 20.27833557 8.92396545 C23.66650824 10.59155047 27.05214804 12.26419708 30.4375 13.9375 C33.81962136 15.60652692 37.20228435 17.2744345 40.58595276 18.94032288 C42.68828272 19.9756357 44.7896776 21.01285013 46.88999939 22.05223083 C51.87620309 24.51034073 56.86222845 26.87564724 62 29 C61.43189471 34.79859195 60.26320265 39.97686594 58.4375 45.5 C58.08655273 46.59054688 58.08655273 46.59054688 57.72851562 47.703125 C57.15867219 49.47080261 56.58024596 51.23570969 56 53 C46.3204691 51.52601868 36.80148214 49.49993648 27.25 47.375 C25.76308304 47.0465932 24.27610421 46.71846643 22.7890625 46.390625 C19.19199117 45.59696823 15.59576525 44.79955605 12 44 C10.44527314 38.86073216 8.89724042 33.71951208 7.35522461 28.57641602 C6.83034259 26.82912627 6.30367432 25.08237204 5.77514648 23.33618164 C5.01329429 20.81797651 4.2580068 18.2978795 3.50390625 15.77734375 C3.26845596 15.00414291 3.03300568 14.23094208 2.79042053 13.43431091 C1.45836043 8.95540698 0.54040163 4.64315228 0 0 Z " fill="#FFFFFF" transform="translate(111,17)"/>
<path d="M0 0 C1.71425579 5.6400991 3.42311068 11.28179516 5.12695312 16.92504883 C5.70749658 18.84509566 6.28952054 20.76469549 6.87304688 22.68383789 C7.71091932 25.44040974 8.54347661 28.19853855 9.375 30.95703125 C9.63748535 31.81649857 9.8999707 32.67596588 10.17041016 33.56147766 C10.53078369 34.76238289 10.53078369 34.76238289 10.8984375 35.98754883 C11.21820557 37.04344963 11.21820557 37.04344963 11.54443359 38.12068176 C12 40 12 40 12 43 C4.19873204 42.31050991 -3.31933205 40.78209336 -10.96875 39.12890625 C-12.29867465 38.84351716 -13.62863128 38.55827702 -14.95861816 38.2731781 C-17.72603652 37.67869802 -20.49264423 37.08060107 -23.25878906 36.48022461 C-26.80899611 35.71025821 -30.36166632 34.9523694 -33.91509247 34.19741917 C-36.65289273 33.6138849 -39.38898738 33.02265354 -42.12464905 32.42918205 C-44.07186153 32.0086336 -46.02072887 31.59577132 -47.96960449 31.18299866 C-49.14172485 30.92610764 -50.31384521 30.66921661 -51.52148438 30.40454102 C-52.55801147 30.18105484 -53.59453857 29.95756866 -54.66247559 29.72731018 C-55.43385864 29.48729782 -56.2052417 29.24728546 -57 29 C-57.33 28.34 -57.66 27.68 -58 27 C-57.08057617 26.56300781 -57.08057617 26.56300781 -56.14257812 26.1171875 C-41.32711212 19.0810423 -41.32711212 19.0810423 -26.625 11.8125 C-20.99064284 8.97258449 -15.32501509 6.20591616 -9.625 3.5 C-8.8923291 3.1491333 -8.1596582 2.7982666 -7.40478516 2.43676758 C-2.2362567 0 -2.2362567 0 0 0 Z " fill="#FFFFFF" transform="translate(98,14)"/>
<path d="M0 0 C2.24002181 2.24002181 2.45082686 3.1646128 3.11328125 6.18334961 C3.30688232 7.04862778 3.5004834 7.91390594 3.69995117 8.80540466 C3.90209229 9.74489456 4.1042334 10.68438446 4.3125 11.65234375 C4.52688721 12.62224747 4.74127441 13.59215118 4.9621582 14.59144592 C5.41604476 16.65110903 5.86638389 18.71155655 6.31347656 20.77270508 C6.99078773 23.89503247 7.67792925 27.01505623 8.3671875 30.13476562 C8.80787659 32.14049657 9.24799807 34.14635233 9.6875 36.15234375 C9.88964111 37.07361557 10.09178223 37.99488739 10.30004883 38.94407654 C11.67118136 45.27311846 12.87807116 51.6222017 14 58 C2.81113703 61.65634825 -8.53429664 64.3657014 -20 67 C-19.3294196 59.88425139 -17.09664011 53.25199721 -15 46.4453125 C-14.59989789 45.13502886 -14.20016419 43.82463267 -13.80078125 42.51412964 C-12.96679201 39.78152421 -12.12928768 37.05003021 -11.2890625 34.31933594 C-10.2105854 30.81377395 -9.13961319 27.30597387 -8.07104492 23.79738045 C-7.24825293 21.09783944 -6.42226487 18.39928521 -5.59521484 15.70104599 C-5.19886693 14.40706524 -4.80335699 13.11282752 -4.40869141 11.81833267 C-3.8589483 10.01740832 -3.30459218 8.21789404 -2.75 6.41845703 C-2.43546875 5.39366241 -2.1209375 4.3688678 -1.796875 3.3130188 C-1 1 -1 1 0 0 Z " fill="#FFFFFF" transform="translate(179,68)"/>
<path d="M0 0 C0 4.13451443 -2.1839165 6.12255584 -4.6875 9.1875 C-5.17790771 9.79972412 -5.66831543 10.41194824 -6.17358398 11.04272461 C-7.77390181 13.03551151 -9.38541085 15.01876258 -11 17 C-11.53979492 17.66354492 -12.07958984 18.32708984 -12.63574219 19.01074219 C-14.82765052 21.7045544 -17.02015927 24.39786833 -19.21582031 27.08862305 C-26.00991117 35.43318627 -32.61724571 43.92838421 -38.84375 52.70703125 C-39.41609375 53.34705078 -39.41609375 53.34705078 -40 54 C-40.66 54 -41.32 54 -42 54 C-41.36203146 48.57570043 -40.13437376 43.55378766 -38.56640625 38.328125 C-38.32840805 37.52389099 -38.09040985 36.71965698 -37.84519958 35.89105225 C-37.34414963 34.20284521 -36.84061571 32.51537359 -36.3347168 30.82861328 C-35.56130014 28.2459934 -34.79872799 25.66033926 -34.03710938 23.07421875 C-33.54752064 21.42949517 -33.05730802 19.78495715 -32.56640625 18.140625 C-32.3392543 17.3687384 -32.11210236 16.59685181 -31.87806702 15.80157471 C-30.87795999 12.49041113 -29.9327526 9.8991289 -28 7 C-25.20263672 6.0168457 -25.20263672 6.0168457 -21.6796875 5.17578125 C-19.79443359 4.71655273 -19.79443359 4.71655273 -17.87109375 4.24804688 C-16.53912224 3.93594285 -15.20709016 3.6240972 -13.875 3.3125 C-12.53489546 2.99001409 -11.19504774 2.66645895 -9.85546875 2.34179688 C-6.57269188 1.55062403 -3.28767054 0.7705379 0 0 Z " fill="#FFFFFF" transform="translate(183,140)"/>
</svg>
